<svg version="1.1" id="Calque_1" xmlns="http://www.w3.org/2000/svg" xmlns:xlink="http://www.w3.org/1999/xlink" x="0px" y="0px"
width="484.939px" height="85.339px" viewBox="0 0 484.939 85.339" style="enable-background:new 0 0 484.939 85.339;"
xml:space="preserve">
<g fill="#000">
<path d="M149.938,33.414c-1.791-8.116-6.746-13.07-15.39-13.07c-12.754,0-19.079,11.594-19.079,23.189
c0,11.595,6.324,23.19,19.079,23.19c8.222,0,14.968-6.43,15.811-15.495h6.641c-1.792,13.07-10.331,21.082-22.452,21.082
c-16.654,0-25.719-13.176-25.719-28.777c0-15.6,9.065-28.776,25.719-28.776c11.595,0,20.554,6.219,22.031,18.657H149.938z"/>
<path d="M211.815,43.534c0,15.601-9.064,28.777-25.719,28.777c-16.654,0-25.719-13.176-25.719-28.777
c0-15.6,9.065-28.776,25.719-28.776C202.751,14.757,211.815,27.934,211.815,43.534z M167.017,43.534
c0,11.595,6.325,23.19,19.079,23.19c12.754,0,19.08-11.595,19.08-23.19c0-11.595-6.326-23.189-19.08-23.189
C173.341,20.345,167.017,31.939,167.017,43.534z"/>
<path d="M218.46,16.339h6.64v9.381h0.211c2.424-6.535,9.697-10.963,17.393-10.963
c15.284,0,19.92,8.011,19.92,20.977v34.995h-6.641V36.787c0-9.382-3.055-16.443-13.807-16.443c-10.541,0-16.865,8.01-17.076,18.657
v31.728h-6.64V16.339z"/>
<path d="M304.58,32.256c-0.316-8.223-6.641-11.911-14.23-11.911c-5.903,0-12.86,2.318-12.86,9.381
c0,5.903,6.746,8.011,11.278,9.171l8.856,2.002c7.589,1.16,15.493,5.587,15.493,15.074c0,11.805-11.7,16.338-21.819,16.338
c-12.65,0-21.292-5.903-22.346-19.185h6.641c0.525,8.959,7.166,13.598,16.021,13.598c6.219,0,14.861-2.741,14.861-10.331
c0-6.324-5.903-8.432-11.911-9.907l-8.537-1.898c-8.643-2.318-15.179-5.271-15.179-14.547c0-11.068,10.857-15.284,20.449-15.284
c10.857,0,19.5,5.693,19.923,17.499H304.58z"/>
<path d="M323.449,45.326c0.105,9.697,5.165,21.398,17.919,21.398c9.699,0,14.969-5.692,17.075-13.914h6.64
c-2.845,12.333-10.013,19.501-23.716,19.501c-17.286,0-24.56-13.282-24.56-28.777c0-14.336,7.274-28.776,24.56-28.776
c17.499,0,24.454,15.284,23.929,30.569H323.449z M358.655,39.74c-0.317-10.014-6.535-19.395-17.288-19.395
c-10.857,0-16.865,9.486-17.919,19.395H358.655z"/>
<path d="M371.097,16.339h6.112v12.754h0.21c3.373-8.748,10.753-13.914,20.556-13.492v6.641
c-12.018-0.633-20.238,8.222-20.238,19.5v28.988h-6.64V16.339z"/>
<path d="M417.16,16.339h11.068v5.586H417.16v36.681c0,4.321,0.633,6.851,5.375,7.168
c1.897,0,3.796-0.105,5.693-0.317v5.693c-2.002,0-3.901,0.211-5.903,0.211c-8.855,0-11.911-2.95-11.806-12.226V21.925h-9.486v-5.586
h9.486V0h6.641V16.339z"/>
<path d="M484.939,43.534c0,15.601-9.066,28.777-25.72,28.777c-16.655,0-25.719-13.176-25.719-28.777
c0-15.6,9.064-28.776,25.719-28.776C475.873,14.757,484.939,27.934,484.939,43.534z M440.139,43.534
c0,11.595,6.325,23.19,19.079,23.19c12.754,0,19.079-11.595,19.079-23.19c0-11.595-6.325-23.189-19.079-23.189
C446.464,20.345,440.139,31.939,440.139,43.534z"/>
<path d="M76.565,61.525c3.799,8.508,4.303,15.023,1.385,17.87c-1.175,1.144-2.94,1.726-5.248,1.726
c-6.136,0-15.083-4.067-24.487-10.756c-1.164,0.954-2.329,1.873-3.49,2.755c10.524,7.698,20.596,12.218,27.977,12.218
c3.446,0,6.203-0.983,8.195-2.922c5.634-5.497,2.777-15.496-0.612-22.916c-2.047-4.484-4.88-9.295-8.288-14.144
c-0.856,1.165-1.744,2.333-2.664,3.496C72.307,53.196,74.756,57.473,76.565,61.525z"/>
<path d="M31.215,55.712c-3.335-3.42-6.424-6.935-9.209-10.456c-0.892,1.171-1.749,2.341-2.569,3.506
c2.706,3.375,5.647,6.707,8.756,9.895c3.397,3.482,6.871,6.7,10.343,9.606c1.153-0.844,2.312-1.725,3.473-2.645
C38.358,62.63,34.716,59.301,31.215,55.712z"/>
<path d="M55.456,55.712C40.868,70.672,23.808,81.121,13.97,81.121c-2.308,0-4.074-0.582-5.248-1.726
c-1.724-1.682-2.252-4.642-1.616-8.537c-1.462-0.15-2.829-0.624-4.023-1.352c-1.053,5.681-0.159,10.128,2.693,12.911
c1.989,1.94,4.747,2.922,8.195,2.922c11.233,0,28.703-10.473,44.508-26.68c6.571-6.739,12.234-13.853,16.563-20.737
c-1.391-0.394-2.655-1.091-3.716-2.015C67.178,42.461,61.754,49.251,55.456,55.712z"/>
<path d="M77.951,8.392c2.022,1.973,2.398,5.706,1.176,10.646c1.446,0.218,2.786,0.754,3.949,1.537
c1.767-6.783,1.046-12.058-2.179-15.204c-1.991-1.939-4.748-2.923-8.196-2.923c-7.38,0-17.452,4.52-27.976,12.217
c1.161,0.883,2.326,1.8,3.49,2.753c9.403-6.687,18.349-10.752,24.486-10.752C75.01,6.666,76.776,7.248,77.951,8.392z"/>
<path d="M31.213,32.074c3.501-3.59,7.144-6.919,10.796-9.908c-1.161-0.919-2.32-1.803-3.473-2.645
c-3.472,2.905-6.946,6.124-10.343,9.607c-7.2,7.385-13.31,15.217-17.77,22.706c1.409,0.347,2.696,0.999,3.786,1.887
C18.479,46.604,24.324,39.141,31.213,32.074z"/>
<path d="M77.677,20.503c-4.477,0-8.106,3.628-8.106,8.106c0,4.477,3.629,8.106,8.106,8.106
c4.478,0,8.107-3.629,8.107-8.106C85.785,24.131,82.155,20.503,77.677,20.503z M77.677,34.082c-3.022,0-5.473-2.451-5.473-5.473
c0-3.022,2.45-5.473,5.473-5.473c3.023,0,5.474,2.451,5.474,5.473C83.151,31.631,80.7,34.082,77.677,34.082z"/>
<path d="M8.107,53.127C3.63,53.127,0,56.757,0,61.233c0,4.477,3.63,8.108,8.107,8.108
c4.477,0,8.106-3.631,8.106-8.108C16.213,56.757,12.584,53.127,8.107,53.127z M8.107,66.786c-1.78,0-3.358-0.872-4.331-2.209
c-0.716-0.924-1.143-2.084-1.143-3.344c0-3.023,2.451-5.474,5.474-5.474s5.473,2.451,5.473,5.474c0,1.259-0.426,2.419-1.141,3.344
C11.464,65.913,9.888,66.786,8.107,66.786z"/>
<path d="M58.477,29.128C42.673,12.922,25.203,2.448,13.97,2.448c-3.448,0-6.205,0.983-8.195,2.923
c-5.636,5.495-2.779,15.495,0.61,22.915c2.048,4.483,4.88,9.294,8.287,14.145c0.856-1.168,1.745-2.334,2.664-3.499
c-2.973-4.341-5.422-8.619-7.231-12.672C6.307,17.75,5.801,11.239,8.721,8.392c1.173-1.145,2.939-1.726,5.248-1.726
c9.842,0,26.902,10.449,41.486,25.408c3.335,3.42,6.423,6.932,9.208,10.453c0.892-1.17,1.748-2.339,2.568-3.505
C64.526,35.646,61.585,32.316,58.477,29.128z"/>
</g>
</svg>
